Patient4_TMGait_0pt3_02_left_17_GRF.mot
version=1
nRows=71
nColumns=19
inDegrees=no
endheader
time	F1x	F1y	F1z	M1x	M1y	M1z	F2x	F2y	F2z	M2x	M2y	M2z	EC1x	EC1y	EC1z	EC2x	EC2y	EC2z
32.86	-9.4139	5.2685	-2.6934	-0.60978	-0.26538	6.5016	-33.1716	777.0284	-40.347	295.1006	52.8646	749.8403	-0.0592	0.0182	-0.0073	-0.0462	0.0165	0.9585
32.8806	-6.5579	3.3369	-1.8013	-0.31956	-0.31573	4.2032	-32.3206	776.7843	-41.6438	292.8493	53.7136	750.4608	-0.0592	0.0182	-0.0073	-0.0462	0.0165	0.9585
32.9011	-4.1435	1.7088	-1.0309	-0.082587	-0.36843	2.2694	-31.0924	775.8346	-43.3298	290.0313	54.6832	749.7134	-0.0592	0.0182	-0.0073	-0.0462	0.0165	0.9585
32.9217	-2.3093	0.47805	-0.43364	0.090125	-0.41579	0.8042	-29.3673	774.6675	-45.2278	287.015	55.5749	747.817	-0.0592	0.0182	-0.0073	-0.0462	0.0165	0.9585
32.9423	-1.0485	-0.3577	-0.011766	0.20114	-0.45636	-0.20156	-27.1155	774.3762	-47.0792	284.4264	56.1653	745.6689	-0.0592	0.0182	-0.0073	-0.0462	0.0165	0.9585
32.9629	-0.28344	-0.86015	0.25809	0.26182	-0.4928	-0.8138	-24.412	776.35	-48.6009	283.0023	56.2511	744.5363	-0.0592	0.0182	-0.0073	-0.0462	0.0165	0.9585
32.9834	0.092563	-1.1191	0.41027	0.28815	-0.52858	-1.128	-21.41	781.7473	-49.5222	283.3609	55.6677	745.5466	-0.0592	0.0182	-0.0073	-0.0462	0.0165	0.9585
33.004	0.18945	-1.2314	0.47975	0.29942	-0.56644	-1.2511	-18.2998	790.9914	-49.6266	285.7884	54.3063	749.2027	-0.0592	0.0182	-0.0073	-0.0462	0.0165	0.9585
33.0246	0.10499	-1.2869	0.49743	0.31599	-0.60831	-1.2829	-15.2634	803.5446	-48.8002	290.1377	52.1383	755.1574	-0.0592	0.0182	-0.0073	-0.0462	0.0165	0.9585
33.0451	-0.08389	-1.362	0.48835	0.35712	-0.65623	-1.3143	-12.4232	817.9397	-47.0612	295.8373	49.2224	762.2372	-0.0592	0.0182	-0.0073	-0.0462	0.0165	0.9585
33.0657	-0.31819	-1.5209	0.46893	0.44072	-0.7089	-1.4309	-9.8106	832.0673	-44.5572	301.9996	45.6889	768.7049	-0.0592	0.0182	-0.0073	-0.0462	0.0165	0.9585
33.0863	-0.55503	-1.8166	0.44878	0.58326	-0.76387	-1.7007	-7.374	843.5222	-41.5593	307.5614	41.7376	772.5863	-0.0592	0.0182	-0.0073	-0.0462	0.0165	0.9585
33.1069	-0.76322	-2.2907	0.43164	0.7967	-0.81495	-2.1654	-5.0326	849.9986	-38.4165	311.4543	37.6236	772.0351	-0.0592	0.0182	-0.0073	-0.0462	0.0165	0.9585
33.1274	-0.91313	-2.9582	0.41483	1.083	-0.84811	-2.8365	-2.7135	849.6897	-35.492	312.789	33.626	765.6765	-0.0592	0.0182	-0.0073	-0.0462	0.0165	0.9585
33.148	-0.96948	-3.7848	0.38915	1.4267	-0.83873	-3.676	-0.35627	841.6268	-33.0985	311.0217	30.0041	752.8742	-0.0592	0.0182	-0.0073	-0.0462	0.0165	0.9585
33.1686	-0.88156	-4.6591	0.34007	1.7833	-0.7476	-4.5741	2.1069	825.9501	-31.4217	306.0871	26.9192	733.9205	-0.0592	0.0182	-0.0073	-0.0462	0.0165	0.9585
33.1891	-0.57581	-5.3634	0.24945	2.0671	-0.52402	-5.3205	4.766	804.0167	-30.4799	298.4512	24.3869	710.0887	-0.0592	0.0182	-0.0073	-0.0462	0.0165	0.9585
33.2097	0.041439	-5.5458	0.097004	2.1396	-0.10998	-5.5638	7.6911	778.2645	-30.1529	289.0477	22.3128	683.5062	-0.0592	0.0182	-0.0073	-0.0462	0.0165	0.9585
33.2303	1.0684	-4.6956	-0.13632	1.7988	0.55127	-4.7877	10.8807	751.7762	-30.2672	279.0936	20.5791	656.79	-0.0592	0.0182	-0.0073	-0.0462	0.0165	0.9585
33.2509	2.5836	-2.1373	-0.46493	0.7779	1.5029	-2.3081	14.2545	727.6416	-30.6389	269.8273	19.0855	632.5281	-0.0592	0.0182	-0.0073	-0.0462	0.0165	0.9585
33.2714	4.6076	2.9361	-0.89133	-1.2413	2.7557	2.6956	17.6577	708.2721	-31.0955	262.2342	17.7583	612.718	-0.0592	0.0182	-0.0073	-0.0462	0.0165	0.9585
33.292	7.0421	11.3662	-1.3922	-4.5866	4.2484	11.0816	20.8907	694.8843	-31.4965	256.8377	16.5534	598.3396	-0.0592	0.0182	-0.0073	-0.0462	0.0165	0.9585
33.3126	9.5976	23.8385	-1.9045	-9.5186	5.8003	23.5618	23.729	687.2531	-31.7431	253.5997	15.4577	589.1679	-0.0592	0.0182	-0.0073	-0.0462	0.0165	0.9585
33.3331	11.7268	40.607	-2.3057	-16.1231	7.0641	40.4292	25.933	683.8139	-31.7883	251.9559	14.5007	583.8718	-0.0592	0.0182	-0.0073	-0.0462	0.0165	0.9585
33.3537	12.7818	61.363	-2.3981	-24.2585	7.5774	61.4236	27.2863	682.1558	-31.6228	251.004	13.7367	580.4279	-0.0592	0.0182	-0.0073	-0.0462	0.0165	0.9585
33.3743	12.5383	85.5436	-1.9239	-33.6714	6.977	86.037	27.6814	679.7063	-31.2614	249.7717	13.2028	576.6753	-0.0592	0.0182	-0.0073	-0.0462	0.0165	0.9585
33.3949	11.0825	112.3419	-0.58105	-44.0072	4.9731	113.4939	27.1991	674.2269	-30.746	247.4104	12.8911	570.6992	-0.0592	0.0182	-0.0073	-0.0462	0.0165	0.9585
33.4154	8.6061	140.5419	1.7932	-54.7682	1.4623	142.5906	26.0994	664.0813	-30.1227	243.3032	12.7316	561.0509	-0.0592	0.0182	-0.0073	-0.0462	0.0165	0.9585
33.436	5.408	168.5346	4.9857	-65.3376	-3.2116	171.6986	24.704	648.3933	-29.4308	237.1257	12.6314	546.8989	-0.0592	0.0182	-0.0073	-0.0462	0.0165	0.9585
33.4566	1.8744	194.6625	8.4021	-75.1122	-8.264	199.1065	23.2787	627.1675	-28.7137	228.8882	12.5264	528.156	-0.0592	0.0182	-0.0073	-0.0462	0.0165	0.9585
33.4771	-1.6782	218.0378	11.4562	-83.7909	-12.9543	223.9062	21.9956	601.3436	-28.0331	218.949	12.4076	505.5378	-0.0592	0.0182	-0.0073	-0.0462	0.0165	0.9585
33.4977	-5.1833	238.9494	13.819	-91.5052	-16.9084	246.4325	20.9221	572.5576	-27.4478	207.9239	12.3041	480.3695	-0.0592	0.0182	-0.0073	-0.0462	0.0165	0.9585
33.5183	-8.7359	258.4661	15.485	-98.6613	-20.1508	267.8207	20.0338	542.5939	-26.9587	196.4852	12.2271	454.1313	-0.0592	0.0182	-0.0073	-0.0462	0.0165	0.9585
33.5389	-12.4144	277.7538	16.6949	-105.691	-22.952	289.2544	19.2572	512.916	-26.5225	185.189	12.1687	428.066	-0.0592	0.0182	-0.0073	-0.0462	0.0165	0.9585
33.5594	-16.1787	297.6324	17.7534	-112.8967	-25.6034	311.49	18.5201	484.4401	-26.0965	174.3911	12.123	402.9736	-0.0592	0.0182	-0.0073	-0.0462	0.0165	0.9585
33.58	-19.8588	318.428	18.8588	-120.4037	-28.2432	334.7143	17.7903	457.5356	-25.6434	164.2453	12.0759	379.1978	-0.0592	0.0182	-0.0073	-0.0462	0.0165	0.9585
33.6006	-23.2364	340.0292	20.0496	-128.1832	-30.8315	358.6515	17.079	432.2042	-25.1084	154.7672	11.983	356.7759	-0.0592	0.0182	-0.0073	-0.0462	0.0165	0.9585
33.6211	-26.1189	362.0822	21.2708	-136.1157	-33.2419	382.8088	16.4302	408.2567	-24.4236	145.8956	11.7752	335.5895	-0.0592	0.0182	-0.0073	-0.0462	0.0165	0.9585
33.6417	-28.371	384.1178	22.4643	-144.0307	-35.3635	406.6147	15.9131	385.4224	-23.5408	137.5308	11.3861	315.4474	-0.0592	0.0182	-0.0073	-0.0462	0.0165	0.9585
33.6623	-29.9384	405.6488	23.5811	-151.7477	-37.123	429.5185	15.5878	363.4275	-22.4637	129.5633	10.792	296.1488	-0.0592	0.0182	-0.0073	-0.0462	0.0165	0.9585
33.6829	-30.8352	426.2586	24.6	-159.1103	-38.4967	451.0632	15.4733	342.0336	-21.249	121.8901	10.0267	277.5153	-0.0592	0.0182	-0.0073	-0.0462	0.0165	0.9585
33.7034	-31.1287	445.6929	25.5414	-166.025	-39.5208	470.9638	15.5317	321.0467	-19.9716	114.4216	9.1581	259.401	-0.0592	0.0182	-0.0073	-0.0462	0.0165	0.9585
33.724	-30.9356	463.9389	26.4406	-172.4973	-40.2658	489.1873	15.6748	300.2917	-18.693	107.0757	8.2615	241.6728	-0.0592	0.0182	-0.0073	-0.0462	0.0165	0.9585
33.7446	-30.3804	481.2843	27.3194	-178.6541	-40.7942	505.9968	15.7994	279.5904	-17.4532	99.7736	7.404	224.1915	-0.0592	0.0182	-0.0073	-0.0462	0.0165	0.9585
33.7651	-29.5583	498.3041	28.2049	-184.7354	-41.1643	521.9282	15.8212	258.8137	-16.2767	92.4566	6.6325	206.8548	-0.0592	0.0182	-0.0073	-0.0462	0.0165	0.9585
33.7857	-28.5344	515.7934	29.1409	-191.0666	-41.4432	537.7254	15.6863	237.943	-15.1818	85.1078	5.9754	189.6424	-0.0592	0.0182	-0.0073	-0.0462	0.0165	0.9585
33.8063	-27.3441	534.6854	30.1776	-198.0232	-41.6943	554.2525	15.3738	217.062	-14.1859	77.7494	5.4472	172.6013	-0.0592	0.0182	-0.0073	-0.0462	0.0165	0.9585
33.8269	-26.0029	555.9798	31.3708	-205.9955	-41.9792	572.4289	14.8762	196.323	-13.3003	70.4295	5.0569	155.8216	-0.0592	0.0182	-0.0073	-0.0462	0.0165	0.9585
33.8474	-24.5399	580.6518	32.7752	-215.3458	-42.3594	593.1771	14.1786	175.9057	-12.5201	63.206	4.8045	139.4128	-0.0592	0.0182	-0.0073	-0.0462	0.0165	0.9585
33.868	-23.0219	609.4891	34.4424	-226.341	-42.9018	617.2783	13.2544	155.9188	-11.8135	56.1121	4.6725	123.4298	-0.0592	0.0182	-0.0073	-0.0462	0.0165	0.9585
33.8886	-21.5833	642.8587	36.4266	-239.06	-43.6992	645.1686	12.0514	136.3258	-11.1289	49.1303	4.632	107.8191	-0.0592	0.0182	-0.0073	-0.0462	0.0165	0.9585
33.9091	-20.4263	680.383	38.798	-253.2776	-44.8862	676.6283	10.508	116.9817	-10.395	42.2078	4.6465	92.4499	-0.0592	0.0182	-0.0073	-0.0462	0.0165	0.9585
33.9297	-19.7196	720.7683	41.619	-268.4199	-46.5863	710.5749	8.6092	97.7893	-9.5269	35.3138	4.6555	77.2389	-0.0592	0.0182	-0.0073	-0.0462	0.0165	0.9585
33.9503	-19.4576	761.8766	44.8718	-283.6219	-48.7941	745.0682	6.4342	78.9018	-8.4548	28.5118	4.5804	62.3093	-0.0592	0.0182	-0.0073	-0.0462	0.0165	0.9585
33.9709	-19.4297	800.8144	48.429	-297.7839	-51.3342	777.3746	4.1762	60.7953	-7.1659	21.9826	4.3492	48.0403	-0.0592	0.0182	-0.0073	-0.0462	0.0165	0.9585
33.9914	-19.284	834.205	52.0727	-309.676	-53.8992	804.2595	2.1145	44.171	-5.7176	15.9852	3.9153	34.9836	-0.0592	0.0182	-0.0073	-0.0462	0.0165	0.9585
34.012	-18.6535	858.7372	55.5265	-318.1269	-56.1191	822.5571	0.52018	29.7823	-4.2251	10.7946	3.2788	23.72	-0.0592	0.0182	-0.0073	-0.0462	0.0165	0.9585
34.0326	-17.2547	871.8625	58.4853	-322.261	-57.6228	829.8697	-0.46455	18.2314	-2.8373	6.6288	2.5103	14.7031	-0.0592	0.0182	-0.0073	-0.0462	0.0165	0.9585
34.0531	-14.9145	872.358	60.6779	-321.6887	-58.1038	825.0986	-0.9318	9.7608	-1.689	3.575	1.7514	8.1095	-0.0592	0.0182	-0.0073	-0.0462	0.0165	0.9585
34.0737	-11.5999	860.6027	61.9293	-316.5978	-57.3955	808.6979	-1.0573	4.13	-0.83723	1.5458	1.1095	3.7454	-0.0592	0.0182	-0.0073	-0.0462	0.0165	0.9585
34.0943	-7.4287	838.5652	62.2031	-307.7428	-55.5178	782.6493	-0.98356	0.78994	-0.26861	0.34229	0.62386	1.1686	-0.0592	0.0182	-0.0073	-0.0462	0.0165	0.9585
34.1149	-2.6548	809.4895	61.6025	-296.3298	-52.6745	750.136	-0.814	-0.91319	0.064781	-0.27253	0.29363	-0.1449	-0.0592	0.0182	-0.0073	-0.0462	0.0165	0.9585
34.1354	2.3841	777.4608	60.3173	-283.8672	-49.1819	715.0783	-0.61458	-1.6121	0.22566	-0.52855	0.092778	-0.70437	-0.0592	0.0182	-0.0073	-0.0462	0.0165	0.9585
34.156	7.3647	746.8885	58.5552	-271.9921	-45.3632	681.5916	-0.42208	-1.8485	0.27764	-0.62324	-0.017967	-0.9529	-0.0592	0.0182	-0.0073	-0.0462	0.0165	0.9585
34.1766	12.0679	721.8257	56.4908	-262.2281	-41.4614	653.3468	-0.25102	-2.0452	0.27584	-0.71045	-0.079732	-1.2405	-0.0592	0.0182	-0.0073	-0.0462	0.0165	0.9585
34.1971	16.4028	705.229	54.2667	-255.7032	-37.6272	632.9181	-0.098268	-2.4944	0.26288	-0.89585	-0.13052	-1.8138	-0.0592	0.0182	-0.0073	-0.0462	0.0165	0.9585
34.2177	20.3924	698.4531	52.0304	-252.9442	-33.9627	621.3749	0.046704	-3.343	0.26832	-1.2334	-0.20251	-2.8009	-0.0592	0.0182	-0.0073	-0.0462	0.0165	0.9585
34.2383	24.1166	701.1145	49.9567	-253.8127	-30.5692	618.2399	0.19727	-4.5753	0.31202	-1.7172	-0.31692	-4.1768	-0.0592	0.0182	-0.0073	-0.0462	0.0165	0.9585
34.2589	27.6462	711.2813	48.2405	-257.5693	-27.5706	621.73	0.36856	-5.985	0.40154	-2.2688	-0.48246	-5.7287	-0.0592	0.0182	-0.0073	-0.0462	0.0165	0.9585
34.2794	31.0132	725.9539	47.0594	-263.0547	-25.0941	629.2099	0.57148	-7.1358	0.52993	-2.7196	-0.69526	-7.009	-0.0592	0.0182	-0.0073	-0.0462	0.0165	0.9585
34.3	34.2069	741.6927	46.5324	-268.9331	-23.236	637.7489	0.80396	-7.3103	0.67541	-2.7933	-0.93313	-7.2897	-0.0592	0.0182	-0.0073	-0.0462	0.0165	0.9585
